<?xml version="1.0" standalone="no"?>
<!DOCTYPE svg PUBLIC "-//W3C//DTD SVG 20010904//EN"
 "http://www.w3.org/TR/2001/REC-SVG-20010904/DTD/svg10.dtd">
<svg version="1.0" xmlns="http://www.w3.org/2000/svg"
 width="1178.000000pt" height="1178.000000pt" viewBox="0 0 1178.000000 1178.000000"
 preserveAspectRatio="xMidYMid meet">
<metadata>
Created by potrace 1.11, written by Peter Selinger 2001-2013
</metadata>
<g transform="translate(0.000000,1178.000000) scale(0.100000,-0.100000)"
fill="#000000" stroke="none">
<path d="M5580 10543 c-823 -62 -1559 -344 -2176 -834 -164 -130 -442 -407
-570 -569 -226 -285 -365 -513 -536 -882 -207 -449 -351 -964 -468 -1683 -94
-575 -119 -851 -130 -1410 -9 -495 -15 -543 -99 -806 -61 -188 -192 -433 -300
-557 -156 -179 -221 -307 -245 -482 -26 -190 -24 -217 30 -308 242 -402 500
-729 853 -1083 229 -228 370 -352 586 -515 114 -86 363 -256 414 -284 l24 -12
-7 73 c-6 74 8 237 23 252 6 6 203 -383 230 -455 8 -21 44 -43 193 -116 629
-311 1269 -492 1993 -564 203 -20 838 -17 1045 5 239 25 213 13 250 120 89
256 158 338 349 407 45 17 83 30 85 30 3 0 13 -24 23 -52 13 -39 18 -81 18
-158 -1 -91 -4 -114 -27 -170 -15 -35 -26 -65 -25 -67 11 -11 427 107 427 121
0 6 -14 57 -32 114 -19 62 -28 106 -22 112 5 4 66 42 136 83 l126 75 6 -42 c4
-22 17 -64 30 -92 25 -54 90 -134 109 -134 7 0 42 12 78 26 l67 26 -21 36
c-31 52 -30 141 2 205 35 72 104 141 320 321 372 310 524 503 629 801 54 154
39 370 -49 725 l-48 194 26 66 c64 162 140 300 348 640 196 319 239 395 330
584 201 417 304 805 361 1366 33 317 20 1252 -21 1565 -105 801 -464 1523
-1050 2111 -697 700 -1657 1133 -2689 1214 -118 9 -489 11 -596 3z m-274
-2049 c-40 -237 -52 -585 -27 -819 115 -1089 737 -2067 1576 -2481 179 -88
418 -164 514 -164 15 0 56 -11 90 -25 94 -39 236 -74 325 -82 l79 -6 -7 28
c-6 23 32 -10 176 -150 101 -99 229 -214 285 -255 70 -52 99 -78 92 -86 -17
-21 -134 -67 -181 -72 -74 -7 -93 2 -109 50 -33 100 -152 215 -285 274 -32 14
-101 37 -154 52 -85 24 -113 27 -260 27 -178 0 -243 -11 -366 -64 -224 -96
-418 -288 -516 -512 -29 -67 -33 -84 -33 -170 0 -89 2 -100 34 -162 60 -118
194 -233 379 -326 90 -45 246 -101 283 -101 20 0 18 -4 -19 -36 -55 -47 -75
-87 -75 -149 0 -101 80 -203 210 -267 55 -27 80 -33 161 -37 l96 -6 -50 -44
c-74 -66 -162 -126 -256 -176 l-86 -45 -46 20 c-26 11 -71 27 -100 35 l-52 15
-43 105 c-53 129 -140 263 -235 361 -79 82 -111 94 -122 47 -81 -342 -169
-603 -204 -603 -6 0 -47 -35 -93 -78 l-82 -78 -140 7 c-122 7 -270 24 -384 45
l-34 7 5 -178 c3 -97 2 -171 -2 -164 -4 8 -40 91 -80 184 -40 94 -76 173 -80
178 -3 4 -42 -81 -86 -188 -43 -107 -81 -195 -84 -195 -13 1 -198 286 -220
339 -74 174 -199 286 -387 346 -133 43 -423 214 -643 379 -257 192 -517 449
-689 678 l-43 58 33 122 33 123 85 -42 c101 -50 200 -73 314 -73 149 0 244 42
300 133 57 91 42 189 -44 296 -113 139 -316 231 -513 231 l-73 0 -7 38 c-3 20
-6 89 -6 152 0 139 -20 321 -60 560 -17 98 -30 181 -30 186 0 4 9 -1 20 -11
19 -17 20 -17 20 1 0 10 18 92 40 181 161 660 495 1285 1002 1873 138 160 452
473 593 591 135 114 269 219 273 215 1 -2 -4 -44 -12 -92z m2548 -3872 c84
-44 155 -111 193 -183 26 -50 28 -62 28 -164 0 -89 -5 -123 -23 -175 -102
-287 -304 -501 -532 -563 -121 -33 -120 -35 -33 47 206 194 303 428 303 731 0
114 -18 264 -40 328 -9 26 -8 28 13 21 12 -3 53 -22 91 -42z m496 -334 c-74
-180 -162 -372 -185 -403 -13 -17 -76 -87 -142 -155 -65 -69 -129 -139 -141
-157 -34 -49 -78 -143 -92 -198 -6 -27 -17 -65 -22 -83 l-10 -33 -27 39 c-46
63 -121 117 -206 148 l-30 11 40 13 c72 23 209 98 273 151 167 135 316 406
337 612 7 62 9 68 34 72 66 14 129 38 166 64 22 15 42 27 44 25 2 -2 -15 -50
-39 -106z m-1829 -1824 c4 -2 -14 -26 -41 -53 -60 -60 -94 -156 -88 -246 3
-55 3 -56 -14 -35 -44 54 -46 140 -7 259 29 87 46 102 100 90 23 -6 46 -12 50
-15z m195 -196 c7 -48 -13 -141 -46 -214 -20 -47 -32 -51 -97 -38 l-30 6 52
52 c57 57 82 113 92 210 7 65 19 58 29 -16z m454 -205 c-50 -57 -93 -157 -99
-232 l-6 -65 -37 33 c-44 39 -46 55 -14 119 33 66 80 122 128 155 56 37 66 34
28 -10z m283 -52 c58 -44 60 -65 11 -147 -66 -110 -135 -164 -209 -164 l-38 0
34 23 c77 52 132 167 133 278 1 35 5 55 11 51 6 -3 31 -21 58 -41z m-929 -768
l108 -37 -28 -20 c-204 -149 -313 -327 -429 -701 -25 -82 -48 -151 -50 -153
-2 -3 -505 166 -578 194 -23 9 -22 54 1 54 27 0 115 45 139 72 13 13 50 75 84
138 166 311 272 412 489 469 106 28 141 26 264 -16z"/>
<path d="M4005 6897 c-16 -13 -18 -19 -9 -34 10 -16 32 -19 175 -25 170 -6
238 -15 397 -49 273 -59 588 -203 801 -365 74 -56 104 -66 116 -36 8 21 -46
72 -160 147 -347 230 -731 353 -1157 371 -120 5 -146 4 -163 -9z"/>
<path d="M3815 6359 c7 -128 66 -294 119 -338 12 -10 8 -24 -25 -86 -47 -87
-103 -249 -124 -358 -19 -102 -19 -302 0 -404 65 -342 271 -602 605 -762 157
-76 471 -147 610 -138 112 7 171 30 242 96 99 91 154 238 178 470 30 302 -7
510 -123 689 -159 245 -429 403 -920 538 -153 42 -235 48 -315 20 l-54 -18
-39 38 c-49 48 -101 146 -134 255 l-26 84 6 -86z m1510 -1042 c32 -101 43
-229 34 -402 -10 -188 -45 -339 -97 -425 -27 -44 -86 -101 -124 -121 -80 -41
-227 -42 -395 -3 l-72 17 81 46 c94 53 220 167 283 255 123 174 206 429 222
680 l6 99 18 -34 c10 -19 30 -69 44 -112z"/>
<path d="M5261 3436 c-18 -22 -1 -47 72 -106 125 -102 234 -140 403 -140 122
0 159 12 138 47 -10 16 -23 18 -111 14 -165 -6 -274 32 -401 139 -40 33 -76
60 -81 60 -5 0 -14 -6 -20 -14z"/>
<path d="M10955 4784 c-67 -35 -111 -99 -122 -179 -9 -69 13 -131 66 -186 49
-50 95 -69 166 -69 50 0 135 39 163 74 26 34 56 111 49 129 -3 7 -29 19 -58
25 -30 7 -64 15 -76 18 -18 5 -23 2 -23 -13 0 -33 -29 -63 -60 -63 -49 0 -78
61 -44 94 21 22 63 20 172 -8 50 -13 94 -21 96 -17 7 12 38 152 35 155 -2 2
-52 15 -111 29 -122 31 -209 34 -253 11z"/>
<path d="M10766 4343 l-26 -77 57 -58 c32 -32 54 -58 51 -58 -4 0 -64 20 -134
45 -69 25 -132 45 -139 45 -7 0 -24 -34 -39 -75 l-25 -76 22 -8 c82 -31 525
-181 533 -181 11 0 61 147 53 153 -2 2 -60 24 -129 48 l-125 44 147 3 c127 2
147 5 153 20 4 9 18 47 30 85 l24 67 -42 0 c-23 -1 -89 -5 -147 -10 l-105 -10
-60 60 c-33 33 -63 60 -67 60 -3 0 -18 -35 -32 -77z"/>
<path d="M10680 3939 c-92 -42 -134 -107 -134 -209 0 -110 55 -184 161 -216
82 -25 171 2 230 70 42 46 56 96 51 172 -5 84 -41 138 -117 177 -66 33 -127
35 -191 6z m136 -175 c37 -55 -25 -117 -80 -80 -30 19 -35 65 -10 90 25 25 71
20 90 -10z"/>
<path d="M10470 3539 c-63 -26 -100 -85 -100 -161 -1 -52 -2 -53 -43 -74 -82
-40 -111 -146 -63 -228 24 -40 63 -68 237 -165 44 -24 58 -29 66 -19 18 23 75
129 72 132 -2 2 -42 25 -89 51 -106 60 -140 84 -140 96 0 27 39 15 136 -40 58
-34 110 -61 115 -61 7 0 77 111 82 131 1 5 -47 37 -108 72 -81 46 -110 68
-110 82 0 29 20 22 140 -46 58 -34 107 -60 109 -58 2 2 20 35 41 72 44 80 55
64 -111 156 -121 67 -181 83 -234 60z"/>
<path d="M10156 2995 c-91 -32 -147 -104 -154 -195 -6 -80 16 -137 73 -189 50
-46 110 -66 172 -57 120 16 203 110 203 228 -1 68 -27 125 -79 169 -65 57
-138 72 -215 44z m109 -175 c37 -41 13 -100 -41 -100 -30 0 -66 47 -58 74 14
46 68 61 99 26z"/>
<path d="M9671 2683 c-77 -92 -141 -170 -141 -174 0 -4 28 -30 63 -58 l62 -52
45 49 45 50 155 -134 c85 -73 158 -132 161 -131 10 3 109 121 109 130 0 4 -70
66 -154 139 l-155 132 32 39 c18 21 36 45 41 52 9 12 -2 24 -90 98 l-31 26
-142 -166z"/>
</g>
</svg>
